<svg width="60" height="60" viewBox="0 0 60 60" fill="none" xmlns="http://www.w3.org/2000/svg">
<path d="M32.1089 58.2133C29.8752 60.8451 25.6382 59.2333 25.6382 55.7516V27.5776C25.6382 25.5008 27.2882 23.8171 29.3233 23.8171H53.234C56.3912 23.8171 58.0865 27.6039 56.0198 30.0393L32.1089 58.2133Z" fill="url(#paint0_linear_2253_16)"/>
<path d="M32.1089 58.2133C29.8752 60.8451 25.6382 59.2333 25.6382 55.7516V27.5776C25.6382 25.5008 27.2882 23.8171 29.3233 23.8171H53.234C56.3912 23.8171 58.0865 27.6039 56.0198 30.0393L32.1089 58.2133Z" fill="url(#paint1_linear_2253_16)" fill-opacity="0.9"/>
<path d="M27.6073 2.30617C29.841 -0.325701 34.078 1.28618 34.078 4.76791V32.9419C34.078 35.0187 32.4282 36.7023 30.3931 36.7023H6.48228C3.32512 36.7023 1.62977 32.9156 3.69652 30.4801L27.6073 2.30617Z" fill="url(#paint2_linear_2253_16)" fill-opacity="0.9"/>
<defs>
<linearGradient id="paint0_linear_2253_16" x1="48.7001" y1="25.5753" x2="31.0098" y2="55.3417" gradientUnits="userSpaceOnUse">
<stop stop-opacity="0.7"/>
<stop offset="1"/>
</linearGradient>
<linearGradient id="paint1_linear_2253_16" x1="56.1638" y1="42.5699" x2="25.6335" y2="41.878" gradientUnits="userSpaceOnUse">
<stop stop-color="#3358D4"/>
<stop offset="1" stop-color="#0031D7"/>
</linearGradient>
<linearGradient id="paint2_linear_2253_16" x1="18.4341" y1="36.7023" x2="18.4341" y2="0.999998" gradientUnits="userSpaceOnUse">
<stop stop-color="#075CD7"/>
<stop offset="1" stop-color="#2684FF" stop-opacity="0.93"/>
</linearGradient>
</defs>
</svg>
